

<svg version="1.1" id="man" xmlns="http://www.w3.org/2000/svg" xmlns:xlink="http://www.w3.org/1999/xlink" x="0px" y="0px"
	 width="256px" height="256px" viewBox="0 0 256 256" enable-background="new 0 0 256 256" xml:space="preserve">
<rect fill="#C6D8E1" width="256" height="256"/>
<g>
	<g>
		<path fill="#7F96A6" d="M163.2,154.1c-0.9,0-1.8,0.3-2.5,1c-5.5,5.1-10.2,7.6-14,7.6c-8.4,0-14.8-12.9-22.6-29.3
			c-1.4-2.9-2.8-5.8-4.4-8.8c-14.8-29.4-56.5-78-58.3-80.3c-1.2-1.4-3.1-1.7-4.6-0.8c-32.8,19.1-28.8,65-28.6,66.8h0.2l11.1,99.4
			c0.2,1.9,1.8,3.4,3.7,3.4H61c2,0,3.7-1.7,3.7-3.8v-78.3c20.1,17.7,34,43.9,39.6,55.7h123.1C221,155.3,165.7,154.1,163.2,154.1z
			 M106.8,196.1v13c0,2.1,1.7,3.8,3.7,3.8h113.8c2,0,3.7-1.7,3.7-3.8v-13H106.8z"/>
	</g>
</g>
</svg>
